<svg xmlns="http://www.w3.org/2000/svg" fill="currentColor">
    <symbol id="arrow-btn" viewBox="0 0 24 18">
        <path d="M5.06305 4.78131L15.7023 4.78131V1.9688L22.7335 9.00004L15.7023 16.0313V13.2188L5.06305 13.2188" stroke="currentColor" stroke-width="1.3" stroke-miterlimit="10" stroke-linecap="square" fill="none"/>
        <path d="M10.2762 7.59381H1.0929" stroke="currentColor" stroke-width="1.3" stroke-miterlimit="10" stroke-linecap="square" fill="none"/>
        <path d="M10.2762 10.4063H1.0929" stroke="currentColor" stroke-width="1.3" stroke-miterlimit="10" stroke-linecap="square" fill="none"/>
    </symbol>

    <symbol id="circle" viewBox="0 0 28 28">
        <rect opacity="0.2" width="28" height="28" rx="14" fill="#F9D949"/>
        <rect opacity="0.2" x="4.66675" y="4.6665" width="18.6667" height="18.6667" rx="9.33333" fill="#F9D949"/>
        <rect x="9.33325" y="9.3335" width="9.33333" height="9.33333" rx="4.66667" fill="#F9D949"/>
    </symbol>

    <symbol id="bulb" viewBox="0 0 60 60">
        <rect width="60" height="60" rx="30" fill="#181818"/>
        <path fill-rule="evenodd" clip-rule="evenodd" d="M34.2275 39.0451H25.7542C25.3792 39.0451 25.0606 38.7452 25.0231 38.3702C24.7419 34.9584 23.8046 33.6649 22.886 32.4089C21.9862 31.1716 21.1426 30.0094 21.1426 27.3099C21.1426 22.4359 25.1168 18.4616 29.9908 18.4616C34.8836 18.4616 38.8579 22.4359 38.8579 27.3099C38.8579 30.0094 37.9955 31.1716 37.1145 32.4089C36.1959 33.6649 35.2586 34.9584 34.9586 38.3702C34.9211 38.7452 34.6212 39.0451 34.2275 39.0451ZM24.0858 19.249C23.842 19.249 23.5796 19.1178 23.4484 18.874L22.3611 16.9807C22.1549 16.6245 22.2674 16.1746 22.6235 15.9684C22.9797 15.7809 23.4109 15.8934 23.6171 16.2496L24.7231 18.1429C24.9293 18.4991 24.7981 18.949 24.4607 19.1365C24.3295 19.2115 24.217 19.249 24.0858 19.249ZM19.7553 23.5606C19.6429 23.5606 19.5116 23.5419 19.3992 23.4669L17.487 22.3796C17.1496 22.1734 17.0184 21.7235 17.2246 21.3673C17.4308 21.0299 17.8807 20.8987 18.2181 21.1049L20.1303 22.2109C20.4677 22.3984 20.5989 22.8483 20.3927 23.2045C20.2615 23.4294 20.0178 23.5606 19.7553 23.5606ZM18.1807 29.4845H15.9873C15.5749 29.4845 15.2562 29.147 15.2562 28.7534C15.2562 28.3409 15.5749 28.0223 15.9873 28.0223H18.1807C18.5743 28.0223 18.9118 28.3409 18.9118 28.7534C18.9118 29.147 18.5743 29.4845 18.1807 29.4845ZM17.862 36.4956C17.5995 36.4956 17.3558 36.3644 17.2246 36.1207C17.0184 35.7832 17.1496 35.3333 17.487 35.1271L19.3992 34.0211C19.7366 33.8336 20.1865 33.9461 20.3927 34.3023C20.5989 34.6397 20.4677 35.0896 20.1303 35.2958L18.2181 36.3831C18.1057 36.4581 17.9744 36.4956 17.862 36.4956ZM42.1385 36.4956C42.0073 36.4956 41.8948 36.4581 41.7636 36.3831L39.8702 35.2958C39.514 35.0896 39.4015 34.6397 39.6077 34.3023C39.7952 33.9461 40.2451 33.8336 40.6013 34.0211L42.4947 35.1271C42.8508 35.3333 42.9633 35.7832 42.7759 36.1207C42.6259 36.3644 42.3822 36.4956 42.1385 36.4956ZM44.0131 29.4845H41.8198C41.4074 29.4845 41.0887 29.147 41.0887 28.7534C41.0887 28.3409 41.4074 28.0223 41.8198 28.0223H44.0131C44.4255 28.0223 44.7442 28.3409 44.7442 28.7534C44.7442 29.147 44.4255 29.4845 44.0131 29.4845ZM40.2451 23.5606C39.9826 23.5606 39.7389 23.4294 39.6077 23.2045C39.4015 22.8483 39.514 22.3984 39.8702 22.2109L41.7636 21.1049C42.1197 20.8987 42.5696 21.0299 42.7759 21.3673C42.9633 21.7235 42.8508 22.1734 42.4947 22.3796L40.6013 23.4669C40.4888 23.5419 40.3576 23.5606 40.2451 23.5606ZM35.9147 19.249C35.7835 19.249 35.6522 19.2115 35.5398 19.1365C35.2023 18.949 35.0711 18.4991 35.2773 18.1429L36.3646 16.2496C36.5708 15.8934 37.0207 15.7809 37.3769 15.9684C37.7143 16.1746 37.8456 16.6245 37.6394 16.9807L36.5333 18.874C36.4021 19.1178 36.1584 19.249 35.9147 19.249ZM29.9908 17.6555C29.5972 17.6555 29.2597 17.3368 29.2597 16.9244V14.7311C29.2597 14.3187 29.5972 14 29.9908 14C30.4033 14 30.722 14.3187 30.722 14.7311V16.9244C30.722 17.3368 30.4033 17.6555 29.9908 17.6555ZM29.9908 46C27.8163 46 25.8854 44.7627 25.0606 42.8319C24.9668 42.6069 24.9856 42.3445 25.1168 42.1383C25.248 41.9508 25.4917 41.8196 25.7354 41.8196H34.265C34.5087 41.8196 34.7337 41.9508 34.8836 42.1383C35.0149 42.3445 35.0336 42.6069 34.9399 42.8319C34.115 44.7627 32.1842 46 29.9908 46ZM34.2275 41.1634H25.7542C25.3605 41.1634 25.0231 40.826 25.0231 40.4323C25.0231 40.0199 25.3605 39.7012 25.7542 39.7012H34.2275C34.6399 39.7012 34.9586 40.0199 34.9586 40.4323C34.9586 40.826 34.6399 41.1634 34.2275 41.1634ZM24.6669 28.2097C24.6669 28.2097 24.6856 28.2097 24.7044 28.2097C24.9106 28.191 25.0418 28.0035 25.0043 27.8161C24.8356 26.5413 25.2293 25.2291 26.0541 24.2542C26.7852 23.3919 27.7975 22.8295 28.9223 22.6796C29.1098 22.6608 29.241 22.4733 29.2222 22.2859C29.1848 22.0797 29.016 21.9484 28.8098 21.9672C27.5351 22.1547 26.3541 22.792 25.5105 23.7856C24.5544 24.9291 24.1045 26.4288 24.3107 27.9098C24.3295 28.0785 24.4794 28.2097 24.6669 28.2097Z" fill="currentColor"/>
    </symbol>
</svg>
